HIERARCHY
ROOT Hips
{
	OFFSET -3.958830 18.904000 13.208200
	CHANNELS 6 Xposition Yposition Zposition Zrotation Yrotation Xrotation 
	JOINT LHipJoint
	{
		OFFSET 0.000000 0.000000 0.000000
		CHANNELS 3 Zrotation Yrotation Xrotation
		JOINT LeftUpLeg
		{
			OFFSET 1.800000 -1.400000 0.085000
			CHANNELS 3 Zrotation Yrotation Xrotation
			JOINT LeftLeg
			{
				OFFSET 2.215000 -6.000000 0.000000
				CHANNELS 3 Zrotation Yrotation Xrotation
				JOINT LeftFoot
				{
					OFFSET 2.500000 -6.900000 0.000000
					CHANNELS 3 Zrotation Yrotation Xrotation
					JOINT LeftToeBase
					{
						OFFSET 0.200000 -0.500000 1.950000
						CHANNELS 3 Zrotation Yrotation Xrotation
						End Site
						{
							OFFSET 0.000000 0.000000 0.000000
						}
					}
				}
			}
		}
	}
	JOINT RHipJoint
	{
		OFFSET 0.000000 0.000000 0.000000
		CHANNELS 3 Zrotation Yrotation Xrotation
		JOINT RightUpLeg
		{
			OFFSET -1.800000 -1.400000 0.085000
			CHANNELS 3 Zrotation Yrotation Xrotation
			JOINT RightLeg
			{
				OFFSET -2.215000 -6.000000 0.000000
				CHANNELS 3 Zrotation Yrotation Xrotation
				JOINT RightFoot
				{
					OFFSET -2.500000 -6.900000 0.000000
					CHANNELS 3 Zrotation Yrotation Xrotation
					JOINT RightToeBase
					{
						OFFSET -0.200000 -0.500000 1.950000
						CHANNELS 3 Zrotation Yrotation Xrotation
						End Site
						{
							OFFSET 0.000000 0.000000 0.000000
						}
					}
				}
			}
		}
	}
	JOINT LowerBack
	{
		OFFSET 0.000000 0.000000 0.000000
		CHANNELS 3 Zrotation Yrotation Xrotation
		JOINT Spine
		{
			OFFSET -0.087000 1.940000 -0.288900
			CHANNELS 3 Zrotation Yrotation Xrotation
			JOINT Spine1
			{
				OFFSET 0.000000 1.950000 0.060000
				CHANNELS 3 Zrotation Yrotation Xrotation
				JOINT Neck
				{
					OFFSET 0.000000 0.000000 0.000000
					CHANNELS 3 Zrotation Yrotation Xrotation
					JOINT Neck1
					{
						OFFSET 0.000000 1.600000 0.340000
						CHANNELS 3 Zrotation Yrotation Xrotation
						JOINT Head
						{
							OFFSET 0.000000 1.667000 -0.240000
							CHANNELS 3 Zrotation Yrotation Xrotation
							End Site
							{
								OFFSET 0.000000 0.000000 0.000000
							}
						}
					}
				}
				JOINT LeftShoulder
				{
					OFFSET 0.000000 0.000000 0.000000
					CHANNELS 3 Zrotation Yrotation Xrotation
					JOINT LeftArm
					{
						OFFSET 2.700000 1.550000 -0.730000
						CHANNELS 3 Zrotation Yrotation Xrotation
						JOINT LeftForeArm
						{
							OFFSET 5.450000 0.000000 0.000000
							CHANNELS 3 Zrotation Yrotation Xrotation
							JOINT LeftHand
							{
								OFFSET 3.450000 0.000000 0.000000
								CHANNELS 3 Zrotation Yrotation Xrotation
								JOINT LeftHandIndex1
								{
									OFFSET 0.750000 0.000000 0.000000
									CHANNELS 3 Zrotation Yrotation Xrotation
									End Site
									{
										OFFSET 0.000000 0.000000 0.000000
									}
								}
							}
						}
					}
				}
				JOINT RightShoulder
				{
					OFFSET 0.000000 0.000000 0.000000
					CHANNELS 3 Zrotation Yrotation Xrotation
					JOINT RightArm
					{
						OFFSET -2.700000 1.550000 -0.730000
						CHANNELS 3 Zrotation Yrotation Xrotation
						JOINT RightForeArm
						{
							OFFSET -5.450000 0.000000 0.000000
							CHANNELS 3 Zrotation Yrotation Xrotation
							JOINT RightHand
							{
								OFFSET -3.450000 0.000000 0.000000
								CHANNELS 3 Zrotation Yrotation Xrotation
								JOINT RightHandIndex1
								{
									OFFSET -0.750000 0.000000 0.000000
									CHANNELS 3 Zrotation Yrotation Xrotation
									End Site
									{
										OFFSET 0.000000 0.000000 0.000000
									}
								}
							}
						}
					}
				}
			}
		}
	}
}
MOTION
Frames: 9
Frame Time: 0.016667
1.330540 16.416450 -1.665370 -10.335267 18.576525 3.774065 -15.123502 12.644122 2.218001 9.004647 -2.002903 -18.036507 -3.782514 5.027953 14.122678 -1.356129 4.397118 3.327193 0.426170 -0.317770 0.332720 18.453288 -9.872888 4.137042 -11.025751 8.903690 -32.316218 22.950416 -19.570195 46.172287 -1.325843 -9.423935 1.392695 0.215950 0.620960 0.190410 -4.150741 -1.342661 -7.660810 12.530452 -0.982890 12.356442 -1.855067 0.487730 8.263563 1.315096 -1.624209 -7.319798 -2.852539 -4.525643 23.240969 -2.354770 -6.033260 -10.538980 -22.687056 -1.110568 3.124869 -40.453536 13.004793 -9.204829 -86.647709 -54.757585 40.005335 -4.017420 3.260464 0.788350 0.355240 -0.406450 0.292200 19.945088 2.310275 4.170964 36.646924 -7.374707 -8.746091 97.096228 48.805280 39.142054 1.550444 -1.908873 -0.689430 0.620610 0.234630 -0.505190 
1.257020 16.339460 -1.651920 -9.512135 17.951130 4.817337 -15.188576 12.786341 2.308938 8.303826 -2.199555 -17.976924 -3.769016 4.912982 13.803492 -1.388103 4.409170 3.344818 0.442710 -0.274550 0.324750 18.372622 -9.971238 3.861530 -11.502549 7.350583 -31.946839 21.655373 -16.321396 39.422187 -0.911105 -8.004084 1.810935 0.274830 0.683380 0.205200 -3.932009 -1.568074 -7.414250 10.510329 -0.868584 10.475020 -0.641285 0.132193 8.681726 1.011630 -1.480866 -6.949794 -2.468535 -3.859953 21.878577 -3.214170 -5.193770 -9.472520 -22.757526 -0.980818 2.625986 -38.132318 11.528638 -7.816866 -83.620611 -53.197742 37.384731 -4.101614 3.277910 0.716100 0.431740 -0.451550 0.309420 20.806901 1.947488 4.085635 35.539891 -7.944144 -7.987286 100.045116 48.994072 41.384936 1.503295 -1.974371 -0.697440 0.640690 0.236070 -0.491360 
1.180740 16.253040 -1.638650 -8.673983 17.560710 5.672569 -15.247275 12.930024 2.405752 7.556130 -2.346732 -17.774666 -3.617737 4.708152 13.077817 -1.407996 4.374614 3.386841 0.453810 -0.247420 0.328380 18.289920 -10.116879 3.552484 -11.586993 5.860491 -31.024909 19.585086 -12.818849 31.928653 -0.501867 -6.445582 2.307992 0.318440 0.734780 0.218850 -3.730244 -1.714608 -7.156694 8.481094 -0.769903 8.591686 0.379040 -0.182382 9.164339 0.828179 -0.968866 -6.711352 -1.565233 -3.414006 21.017348 -3.999120 -4.381240 -8.125140 -22.525726 -0.824388 2.436911 -36.382824 10.874087 -6.752082 -83.692305 -51.344630 36.308284 -4.169612 3.310651 0.648010 0.499730 -0.491290 0.325110 21.131338 1.371835 3.875460 35.470984 -8.219891 -7.493189 100.693624 48.992051 41.855620 1.469518 -2.037119 -0.704390 0.648100 0.227260 -0.481590 
1.096170 16.153000 -1.619930 -7.539364 17.038649 6.673340 -15.329384 13.086971 2.508907 6.768621 -2.494691 -17.715257 -3.610944 4.574006 12.503535 -1.440233 4.382084 3.424238 0.461650 -0.214510 0.306070 18.191520 -10.200021 3.245029 -11.420857 4.543364 -29.948399 16.569581 -9.414209 24.237442 -0.147662 -4.950188 2.833913 0.374470 0.815310 0.221690 -3.460459 -1.984749 -6.893523 5.804148 -0.705603 6.656194 1.860849 -0.490152 9.390368 0.467653 -0.757561 -6.330636 -1.155869 -2.885041 19.966115 -4.591300 -3.836000 -6.818830 -22.213489 -0.013236 2.063169 -36.035444 10.253532 -6.030637 -81.453641 -50.237437 34.433802 -4.246123 3.321316 0.577510 0.580220 -0.548890 0.355070 21.739759 0.490140 3.558200 35.280459 -8.777021 -7.032847 101.048512 49.366645 42.507591 1.418064 -2.095143 -0.728000 0.680780 0.225690 -0.462880 
1.018980 16.056470 -1.593610 -6.610799 16.114447 7.607942 -15.378460 13.161773 2.559278 6.252628 -2.558367 -17.419999 -3.797953 4.507064 11.788492 -1.421317 4.410784 3.453162 0.435730 -0.214940 0.252800 18.143337 -10.216472 3.046046 -11.010751 3.694726 -29.059902 13.329906 -6.602680 16.964915 0.114816 -3.797816 3.277378 0.403200 0.906530 0.229020 -3.298619 -2.149400 -6.690242 3.837169 -0.765253 4.737624 2.711377 -0.782073 9.357794 0.180573 -0.606165 -5.989774 -0.856321 -1.937691 19.092073 -4.785420 -3.102230 -4.665660 -21.408759 1.380759 1.731550 -36.862247 9.952420 -5.562811 -79.076657 -49.342825 32.702435 -4.336264 3.361156 0.467200 0.674040 -0.627140 0.376020 21.647954 -0.961353 3.137261 35.856552 -9.421047 -6.674134 100.176736 49.956678 42.556946 1.386995 -2.161244 -0.734610 0.685170 0.235900 -0.430510 
0.937000 15.965800 -1.552780 -5.416297 14.723822 9.119210 -15.413021 13.116321 2.556899 5.468541 -2.696678 -17.416121 -3.966929 4.407725 11.022121 -1.438781 4.516467 3.487474 0.351760 -0.281680 0.134870 18.145190 -10.092148 2.982400 -11.049578 3.268868 -28.859216 10.525656 -4.550298 10.324350 0.323381 -3.207414 3.534383 0.432840 1.112270 0.273100 -3.208313 -2.269635 -6.509458 1.871580 -0.827764 2.142325 3.197974 -0.995283 8.969621 -0.174302 -0.431185 -5.490238 -0.369150 -0.718368 17.281286 -5.429290 -2.270710 -1.006080 -20.173090 3.609108 1.269729 -37.888757 9.996536 -4.864236 -76.680413 -48.863044 31.425369 -4.553266 3.432043 0.286130 0.872400 -0.791850 0.396160 21.228013 -3.284663 2.411025 36.870967 -10.237423 -5.923109 97.793897 49.708684 40.926765 1.291598 -2.281276 -0.772020 0.699040 0.305720 -0.383080 
0.855700 15.904630 -1.517280 -4.063964 12.874840 10.194173 -15.426897 13.062154 2.548316 4.713417 -2.777233 -17.338472 -4.500018 4.505253 10.893822 -1.399358 4.641363 3.504744 0.267270 -0.346740 -0.000640 18.161586 -9.945504 3.003156 -11.582164 3.074343 -28.870921 8.279810 -3.305753 5.623470 0.440172 -3.017227 3.647753 0.436260 1.285130 0.300400 -3.176943 -2.379778 -6.444667 0.274802 -0.815285 0.627789 3.217529 -0.963204 8.424543 -0.623731 -0.779888 -5.211167 -0.820965 0.951370 15.954467 -5.096970 -1.602060 1.787490 -18.659036 5.723238 1.087453 -39.916612 10.279035 -4.785673 -74.357386 -49.697330 30.969012 -4.698496 3.511792 0.133760 1.015460 -0.926790 0.428000 20.633078 -4.996518 1.837740 38.927931 -10.594978 -5.701550 93.114119 49.569273 37.897741 1.240042 -2.362971 -0.792180 0.704540 0.362110 -0.323000 
0.782690 15.879750 -1.481980 -3.099391 10.803769 10.584411 -15.416181 13.002701 2.516683 4.553622 -2.746847 -17.073923 -5.286990 4.773870 11.188769 -1.361405 4.834032 3.481457 0.202060 -0.395890 -0.114930 18.192306 -9.856766 3.031154 -12.123807 3.004102 -28.563905 7.061899 -2.698547 2.839991 0.510923 -3.063546 3.667044 0.446660 1.432430 0.320490 -3.211957 -2.378777 -6.396727 -0.346000 -0.656816 -0.442193 2.898972 -0.721791 7.904924 -1.034473 -1.326958 -4.733030 -1.650170 2.489453 15.010507 -4.660410 -1.167480 3.802600 -17.480105 7.769854 0.667866 -42.784618 9.620068 -4.878834 -68.406933 -50.069221 28.168443 -4.819716 3.552684 0.006440 1.133810 -1.044560 0.453820 20.241774 -6.501483 1.207611 40.893856 -10.444409 -5.587368 86.906178 49.465316 34.242976 1.196345 -2.416287 -0.811330 0.714580 0.412380 -0.272650 
0.714020 15.894460 -1.468660 -2.394846 9.701307 10.445708 -15.409976 13.010700 2.507161 4.720958 -2.776880 -17.417828 -5.817509 5.169025 12.567025 -1.322341 5.013042 3.421003 0.138070 -0.457080 -0.195360 18.196571 -9.846142 3.018843 -12.794199 2.859643 -28.014212 7.194881 -2.710599 2.418739 0.536139 -3.157393 3.646523 0.419310 1.497980 0.321710 -3.219752 -2.414384 -6.364251 -0.380536 -0.750381 -0.648742 2.562045 -0.683461 7.326494 -1.359326 -2.059051 -4.221685 -2.900530 3.423537 14.954397 -4.165310 -1.137230 4.642640 -16.808385 9.502878 0.138436 -46.338204 8.286781 -5.257770 -60.327344 -50.588954 24.376302 -4.861911 3.516141 -0.031590 1.168530 -1.092600 0.452930 20.159882 -7.611081 0.757624 42.123517 -10.108053 -5.661061 82.139872 49.793720 32.064844 1.198523 -2.390124 -0.824540 0.722350 0.458770 -0.245250 
